<svg xmlns="http://www.w3.org/2000/svg" viewBox="0 0 130.6 186.82"><defs><style>.cls-1{fill:#979bcd;}.cls-2{fill:#5c1f5b;}.cls-3{fill:#8d92c8;}.cls-4{fill:#93648e;}.cls-5{fill:none;stroke:#fff;stroke-linecap:round;stroke-linejoin:round;stroke-width:3.69px;}.cls-6{fill:#80527b;}.cls-7{fill:#734c6d;}</style></defs><g id="Layer_2" data-name="Layer 2"><g id="Layer_1-2" data-name="Layer 1"><path class="cls-1" d="M51,126.05a1.74,1.74,0,0,1-.8-.19l-17-8.2a1.83,1.83,0,0,1-.94-1,1.89,1.89,0,0,1,.08-1.42l8.49-17.63a1.85,1.85,0,0,1,1.67-1,1.9,1.9,0,0,1,.8.18l17,8.2a1.86,1.86,0,0,1,.87,2.47L52.64,125A1.85,1.85,0,0,1,51,126.05Z"/><path class="cls-2" d="M42.45,98.36l17,8.21L51,124.2,34,116l8.5-17.64m0-3.69a3.7,3.7,0,0,0-3.33,2.09l-8.5,17.63a3.69,3.69,0,0,0,1.73,4.93l17,8.21a3.72,3.72,0,0,0,4.94-1.73l8.49-17.63a3.69,3.69,0,0,0-1.72-4.93l-17-8.2a3.67,3.67,0,0,0-1.6-.37Z"/><path class="cls-1" d="M72.16,114.91A56.6,56.6,0,0,1,18.85,77a56.09,56.09,0,0,1,2.43-43.19,56.86,56.86,0,0,1,51-32,56.53,56.53,0,0,1,50.89,81.06A56.87,56.87,0,0,1,72.16,114.91Z"/><path class="cls-2" d="M72.23,3.69a54.68,54.68,0,1,1-49.29,31,54.57,54.57,0,0,1,49.29-31m0-3.69V0h0A58.37,58.37,0,0,0,46.87,111a57.75,57.75,0,0,0,25.29,5.8A58.37,58.37,0,0,0,97.53,5.8,57.75,57.75,0,0,0,72.24,0Z"/><path class="cls-3" d="M123.69,40A54.66,54.66,0,0,1,18,65.31,54.67,54.67,0,1,0,123.69,40Z"/><path class="cls-4" d="M72.17,102.25A43.87,43.87,0,0,1,32.68,39.34,44.13,44.13,0,0,1,72.23,14.5a43.88,43.88,0,0,1,39.49,62.91A44.13,44.13,0,0,1,72.17,102.25Z"/><path class="cls-2" d="M72.23,16.35A42,42,0,1,1,34.35,40.14,41.87,41.87,0,0,1,72.23,16.35m0-3.69v0h0A46,46,0,0,0,31,38.54,45.73,45.73,0,0,0,72.17,104.1a46,46,0,0,0,41.21-25.88A45.73,45.73,0,0,0,72.23,12.66Z"/><path class="cls-5" d="M45.94,35.32a35.06,35.06,0,0,1,30-11.69"/><path class="cls-6" d="M104.05,31A42,42,0,0,1,30.32,61.45,42,42,0,1,0,104.05,31Z"/><path class="cls-7" d="M105.29,32.54A42,42,0,0,1,33.38,74.33a42,42,0,1,0,71.91-41.79Z"/><path class="cls-1" d="M21.32,185a13.91,13.91,0,0,1-6.07-1.39L9.78,181a14,14,0,0,1-6.54-18.68l23.88-49.56a1.83,1.83,0,0,1,1.66-1,1.77,1.77,0,0,1,.8.19L57,125a1.84,1.84,0,0,1,.86,2.46L33.94,177.05A14.09,14.09,0,0,1,21.32,185Z"/><path class="cls-2" d="M28.78,113.51l27.37,13.18L32.27,176.25a12.13,12.13,0,0,1-16.22,5.67l-5.47-2.64a12.14,12.14,0,0,1-5.67-16.21l23.87-49.56m0-3.7a3.69,3.69,0,0,0-3.33,2.1L1.58,161.46A15.85,15.85,0,0,0,9,182.61l5.48,2.64a15.77,15.77,0,0,0,6.87,1.57,15.94,15.94,0,0,0,14.28-9l23.88-49.56a3.72,3.72,0,0,0,.16-2.82,3.77,3.77,0,0,0-1.89-2.11L30.38,110.18a3.64,3.64,0,0,0-1.6-.37Z"/><path class="cls-3" d="M47.63,122.59,27.56,164.25a12.15,12.15,0,0,1-16.21,5.67l-5.48-2.64a13.13,13.13,0,0,1-1.95-1.18,12.13,12.13,0,0,0,6.66,13.18l5.47,2.64a12.14,12.14,0,0,0,16.22-5.67l23.88-49.56Z"/><line class="cls-5" x1="30.69" y1="120.98" x2="16.41" y2="150.63"/></g></g></svg>